Normalized EMG Linear Envelopes
nRows=142
nColumns=4

endheader
time	 med_gas_r	  soleus_r	 tib_ant_r	
3.1248	  0.069239	  0.093047	  0.010000	
3.1873	  0.066990	  0.094521	  0.010042	
3.24979	  0.065925	  0.096557	  0.010049	
3.31229	  0.066923	  0.098279	  0.009937	
3.37478	  0.069713	  0.098529	  0.009676	
3.43728	  0.072482	  0.097882	  0.009415	
3.49978	  0.073086	  0.097933	  0.009378	
3.56227	  0.070888	  0.099066	  0.009637	
3.62477	  0.067305	  0.100455	  0.010038	
3.68726	  0.064339	  0.102197	  0.010288	
3.74976	  0.063031	  0.106007	  0.010188	
3.81226	  0.063672	  0.112358	  0.009857	
3.87475	  0.066909	  0.117872	  0.009630	
3.93725	  0.073688	  0.118419	  0.009748	
3.99974	  0.083838	  0.114345	  0.010281	
4.06224	  0.096009	  0.109997	  0.011300	
4.12474	  0.109859	  0.109800	  0.012817	
4.18723	  0.127302	  0.116963	  0.014534	
4.24973	  0.150683	  0.133478	  0.016092	
4.31222	  0.178653	  0.158931	  0.017844	
4.37472	  0.206552	  0.188467	  0.020998	
4.43722	  0.235177	  0.213153	  0.027090	
4.49971	  0.270512	  0.226313	  0.037262	
4.56221	  0.308250	  0.229139	  0.050990	
4.6247	  0.334475	  0.228167	  0.065980	
4.6872	  0.346308	  0.229977	  0.079743	
4.7497	  0.352565	  0.238549	  0.089621	
4.81219	  0.356659	  0.255540	  0.093671	
4.87469	  0.358711	  0.282527	  0.094339	
4.93718	  0.365111	  0.320389	  0.097869	
4.99968	  0.380178	  0.365394	  0.109017	
5.06218	  0.400373	  0.409251	  0.128245	
5.12467	  0.421438	  0.444115	  0.153037	
5.18717	  0.439686	  0.464592	  0.181170	
5.24966	  0.451943	  0.467057	  0.211253	
5.31216	  0.460887	  0.454943	  0.238908	
5.37466	  0.472149	  0.442271	  0.257700	
5.43715	  0.486343	  0.443070	  0.266490	
5.49965	  0.500900	  0.459565	  0.271062	
5.56214	  0.515325	  0.485608	  0.279121	
5.62464	  0.528471	  0.516680	  0.296035	
5.68714	  0.535520	  0.549003	  0.320555	
5.74963	  0.532132	  0.572592	  0.344974	
5.81213	  0.519013	  0.578013	  0.363354	
5.87462	  0.500675	  0.569025	  0.376501	
5.93712	  0.481443	  0.557583	  0.389753	
5.99962	  0.464878	  0.551010	  0.410303	
6.06211	  0.453450	  0.551168	  0.441530	
6.12461	  0.446363	  0.558855	  0.475276	
6.1871	  0.442597	  0.575261	  0.496947	
6.2496	  0.444448	  0.601291	  0.503124	
6.3121	  0.454537	  0.632121	  0.505891	
6.37459	  0.473396	  0.654999	  0.515543	
6.43709	  0.499511	  0.659063	  0.527906	
6.49958	  0.528900	  0.642932	  0.532127	
6.56208	  0.556187	  0.609618	  0.525660	
6.62458	  0.576621	  0.562037	  0.518347	
6.68707	  0.588131	  0.508935	  0.519779	
6.74957	  0.592437	  0.468443	  0.526874	
6.81206	  0.592645	  0.455755	  0.530171	
6.87456	  0.589646	  0.470376	  0.526474	
6.93706	  0.580905	  0.501672	  0.521227	
6.99955	  0.563726	  0.539769	  0.523658	
7.06205	  0.540907	  0.575424	  0.538093	
7.12454	  0.519182	  0.597426	  0.557239	
7.18704	  0.503862	  0.599865	  0.570572	
7.24954	  0.501698	  0.588220	  0.580241	
7.31203	  0.521078	  0.571311	  0.596355	
7.37453	  0.560391	  0.555902	  0.615212	
7.43702	  0.604505	  0.552301	  0.619319	
7.49952	  0.637493	  0.570524	  0.602100	
7.56202	  0.651166	  0.607566	  0.577614	
7.62451	  0.643648	  0.645338	  0.565431	
7.68701	  0.620857	  0.662783	  0.576537	
7.7495	  0.596838	  0.651862	  0.611323	
7.812	  0.583244	  0.622331	  0.662456	
7.8745	  0.578774	  0.593006	  0.716954	
7.93699	  0.572819	  0.580860	  0.756281	
7.99949	  0.559535	  0.591180	  0.762459	
8.06198	  0.545824	  0.612143	  0.734111	
8.12448	  0.544435	  0.623365	  0.691222	
8.18698	  0.560844	  0.612802	  0.657223	
8.24947	  0.585855	  0.584683	  0.644754	
8.31197	  0.601995	  0.554584	  0.659173	
8.37446	  0.601055	  0.538109	  0.700347	
8.43696	  0.591474	  0.538918	  0.755389	
8.49946	  0.585888	  0.547052	  0.798267	
8.56195	  0.587021	  0.551118	  0.806851	
8.62445	  0.586510	  0.547881	  0.783996	
8.68694	  0.574392	  0.541405	  0.754585	
8.74944	  0.548835	  0.540609	  0.736959	
8.81194	  0.516052	  0.552798	  0.725810	
8.87443	  0.484466	  0.572634	  0.708469	
8.93693	  0.463536	  0.584620	  0.687461	
8.99942	  0.461620	  0.580207	  0.676983	
9.06192	  0.477027	  0.565757	  0.683833	
9.12442	  0.496706	  0.554920	  0.700244	
9.18691	  0.508288	  0.559034	  0.712589	
9.24941	  0.508845	  0.578848	  0.715935	
9.3119	  0.500897	  0.599531	  0.719423	
9.3744	  0.487058	  0.601895	  0.731987	
9.4369	  0.472783	  0.583448	  0.748233	
9.49939	  0.464962	  0.560606	  0.754800	
9.56189	  0.463845	  0.546344	  0.742045	
9.62438	  0.464319	  0.531692	  0.708737	
9.68688	  0.463415	  0.497436	  0.663885	
9.74938	  0.462828	  0.442683	  0.621590	
9.81187	  0.464527	  0.389409	  0.592001	
9.87437	  0.463080	  0.358687	  0.577761	
9.93686	  0.448571	  0.354334	  0.574249	
9.99936	  0.419939	  0.365889	  0.575153	
10.0619	  0.389850	  0.376964	  0.580168	
10.1244	  0.373286	  0.376185	  0.592135	
10.1868	  0.370745	  0.364800	  0.609958	
10.2493	  0.369391	  0.348961	  0.628944	
10.3118	  0.363014	  0.330156	  0.642283	
10.3743	  0.358628	  0.309154	  0.641641	
10.4368	  0.364287	  0.289926	  0.621559	
10.4993	  0.379756	  0.275337	  0.584855	
10.5618	  0.392965	  0.265580	  0.543929	
10.6243	  0.389341	  0.260074	  0.511519	
10.6868	  0.369601	  0.256241	  0.486391	
10.7493	  0.341208	  0.248888	  0.455301	
10.8118	  0.304727	  0.233714	  0.409197	
10.8743	  0.270949	  0.211719	  0.349820	
10.9368	  0.258348	  0.189457	  0.285425	
10.9993	  0.260823	  0.173115	  0.227871	
11.0618	  0.258034	  0.164364	  0.187799	
11.1243	  0.248761	  0.162205	  0.166028	
11.1868	  0.239409	  0.163124	  0.154204	
11.2493	  0.227860	  0.161553	  0.144990	
11.3118	  0.219297	  0.155589	  0.135392	
11.3743	  0.222203	  0.148512	  0.123469	
11.4368	  0.227970	  0.143504	  0.109465	
11.4993	  0.227552	  0.140995	  0.096657	
11.5618	  0.231268	  0.139498	  0.087940	
11.6243	  0.245861	  0.136699	  0.084488	
11.6868	  0.257893	  0.131554	  0.085913	
11.7492	  0.253970	  0.125366	  0.090562	
11.8117	  0.226681	  0.120057	  0.098394	
11.8742	  0.163394	  0.116457	  0.111444	
11.9367	  0.065749	  0.114119	  0.129209	
